<?xml version="1.0" encoding="UTF-8" standalone="no"?>
<!DOCTYPE svg PUBLIC "-//W3C//DTD SVG 1.1//EN"
 "http://www.w3.org/Graphics/SVG/1.1/DTD/svg11.dtd">
<!-- Generated by graphviz version 2.50.0 (0)
 -->
<!-- Pages: 1 -->
<svg width="1955pt" height="337pt"
 viewBox="0.00 0.00 1954.50 337.00" xmlns="http://www.w3.org/2000/svg" xmlns:xlink="http://www.w3.org/1999/xlink">
<g id="graph0" class="graph" transform="scale(1 1) rotate(0) translate(4 333)">
<polygon fill="white" stroke="transparent" points="-4,4 -4,-333 1950.5,-333 1950.5,4 -4,4"/>
<!-- node0 -->
<g id="node1" class="node">
<title>node0</title>
<polygon fill="grey" stroke="transparent" points="488,-305 488,-324 627,-324 627,-305 488,-305"/>
<text text-anchor="start" x="515.5" y="-311.8" font-family="DejaVu Sans" font-weight="bold" font-size="14.00">Extremadura</text>
<g id="a_node1_0"><a xlink:href="http://uned.es/ejs/Extremadura" xlink:title="&lt;TABLE&gt;">
<polygon fill="#eeeeee" stroke="transparent" points="488,-290 488,-305 627,-305 627,-290 488,-290"/>
<text text-anchor="start" x="490" y="-295" font-family="DejaVu Sans" font-size="10.00" fill="#6666ff">http://uned.es/ejs/Extremadura</text>
</a>
</g>
<polygon fill="none" stroke="#666666" points="486.5,-289 486.5,-325 627.5,-325 627.5,-289 486.5,-289"/>
</g>
<!-- node1 -->
<g id="node2" class="node">
<title>node1</title>
<polygon fill="grey" stroke="transparent" points="665,-210 665,-229 798,-229 798,-210 665,-210"/>
<text text-anchor="start" x="693.5" y="-216.8" font-family="DejaVu Sans" font-weight="bold" font-size="14.00">Comunidad</text>
<g id="a_node2_1"><a xlink:href="http://uned.es/ejs/Comunidad" xlink:title="&lt;TABLE&gt;">
<polygon fill="#eeeeee" stroke="transparent" points="665,-195 665,-210 798,-210 798,-195 665,-195"/>
<text text-anchor="start" x="667" y="-200" font-family="DejaVu Sans" font-size="10.00" fill="#6666ff">http://uned.es/ejs/Comunidad</text>
</a>
</g>
<polygon fill="none" stroke="#666666" points="663.5,-194 663.5,-230 798.5,-230 798.5,-194 663.5,-194"/>
</g>
<!-- node0&#45;&gt;node1 -->
<g id="edge1" class="edge">
<title>node0&#45;&gt;node1</title>
<path fill="none" stroke="BLACK" d="M607.85,-284.95C620.18,-279.44 633.2,-273.28 645,-267 660.47,-258.77 676.88,-248.79 691.18,-239.67"/>
<polygon fill="BLACK" stroke="BLACK" points="693.28,-242.48 699.79,-234.11 689.49,-236.6 693.28,-242.48"/>
<text text-anchor="start" x="669" y="-256.8" font-family="Times,serif" font-size="14.00"> </text>
<text text-anchor="start" x="673" y="-256.8" font-family="Times,serif" font-size="10.00" fill="#336633">rdf:type</text>
<text text-anchor="start" x="706" y="-256.8" font-family="Times,serif" font-size="14.00"> </text>
</g>
<!-- node2 -->
<g id="node3" class="node">
<title>node2</title>
<polygon fill="grey" stroke="transparent" points="486,-210 486,-229 629,-229 629,-210 486,-210"/>
<text text-anchor="start" x="513" y="-216.8" font-family="DejaVu Sans" font-weight="bold" font-size="14.00">Badajoz_prov</text>
<g id="a_node3_2"><a xlink:href="http://uned.es/ejs/Badajoz_prov" xlink:title="&lt;TABLE&gt;">
<polygon fill="#eeeeee" stroke="transparent" points="486,-195 486,-210 629,-210 629,-195 486,-195"/>
<text text-anchor="start" x="488" y="-200" font-family="DejaVu Sans" font-size="10.00" fill="#6666ff">http://uned.es/ejs/Badajoz_prov</text>
</a>
</g>
<polygon fill="none" stroke="#666666" points="484.5,-194 484.5,-230 629.5,-230 629.5,-194 484.5,-194"/>
</g>
<!-- node0&#45;&gt;node2 -->
<g id="edge9" class="edge">
<title>node0&#45;&gt;node2</title>
<path fill="none" stroke="BLACK" d="M557,-284.9C557,-272.89 557,-257.62 557,-244.24"/>
<polygon fill="BLACK" stroke="BLACK" points="560.5,-244.02 557,-234.02 553.5,-244.02 560.5,-244.02"/>
<text text-anchor="start" x="557" y="-256.8" font-family="Times,serif" font-size="14.00"> </text>
<text text-anchor="start" x="561" y="-256.8" font-family="Times,serif" font-size="10.00" fill="#336633">ej:tiene_provincia</text>
<text text-anchor="start" x="637" y="-256.8" font-family="Times,serif" font-size="14.00"> </text>
</g>
<!-- node6 -->
<g id="node7" class="node">
<title>node6</title>
<polygon fill="grey" stroke="transparent" points="227,-210 227,-229 371,-229 371,-210 227,-210"/>
<text text-anchor="start" x="254" y="-216.8" font-family="DejaVu Sans" font-weight="bold" font-size="14.00">Caceres_prov</text>
<g id="a_node7_3"><a xlink:href="http://uned.es/ejs/Caceres_prov" xlink:title="&lt;TABLE&gt;">
<polygon fill="#eeeeee" stroke="transparent" points="227,-195 227,-210 371,-210 371,-195 227,-195"/>
<text text-anchor="start" x="229" y="-200" font-family="DejaVu Sans" font-size="10.00" fill="#6666ff">http://uned.es/ejs/Caceres_prov</text>
</a>
</g>
<polygon fill="none" stroke="#666666" points="226,-194 226,-230 372,-230 372,-194 226,-194"/>
</g>
<!-- node0&#45;&gt;node6 -->
<g id="edge4" class="edge">
<title>node0&#45;&gt;node6</title>
<path fill="none" stroke="BLACK" d="M498.46,-284.9C459.37,-270.81 407.83,-252.23 366.93,-237.49"/>
<polygon fill="BLACK" stroke="BLACK" points="367.91,-234.12 357.31,-234.02 365.53,-240.7 367.91,-234.12"/>
<text text-anchor="start" x="443" y="-256.8" font-family="Times,serif" font-size="14.00"> </text>
<text text-anchor="start" x="447" y="-256.8" font-family="Times,serif" font-size="10.00" fill="#336633">ej:tiene_provincia</text>
<text text-anchor="start" x="523" y="-256.8" font-family="Times,serif" font-size="14.00"> </text>
</g>
<!-- node7 -->
<g id="node8" class="node">
<title>node7</title>
<polygon fill="grey" stroke="transparent" points="619,-20 619,-39 822,-39 822,-20 619,-20"/>
<text text-anchor="start" x="702" y="-26.8" font-family="DejaVu Sans" font-weight="bold" font-size="14.00">Class</text>
<g id="a_node8_4"><a xlink:href="http://www.w3.org/2000/01/rdf-schema#Class" xlink:title="&lt;TABLE&gt;">
<polygon fill="#eeeeee" stroke="transparent" points="619,-5 619,-20 822,-20 822,-5 619,-5"/>
<text text-anchor="start" x="621" y="-10" font-family="DejaVu Sans" font-size="10.00" fill="#6666ff">http://www.w3.org/2000/01/rdf&#45;schema#Class</text>
</a>
</g>
<polygon fill="none" stroke="#666666" points="617.5,-4 617.5,-40 822.5,-40 822.5,-4 617.5,-4"/>
</g>
<!-- node1&#45;&gt;node7 -->
<g id="edge5" class="edge">
<title>node1&#45;&gt;node7</title>
<path fill="none" stroke="BLACK" d="M724.25,-189.83C720.09,-175.63 715.14,-156.39 713,-139 709.47,-110.35 712.08,-77.49 715.06,-54.07"/>
<polygon fill="BLACK" stroke="BLACK" points="718.54,-54.41 716.43,-44.03 711.61,-53.46 718.54,-54.41"/>
<text text-anchor="start" x="713" y="-114.3" font-family="Times,serif" font-size="14.00"> </text>
<text text-anchor="start" x="717" y="-114.3" font-family="Times,serif" font-size="10.00" fill="#336633">rdf:type</text>
<text text-anchor="start" x="750" y="-114.3" font-family="Times,serif" font-size="14.00"> </text>
</g>
<!-- node3 -->
<g id="node4" class="node">
<title>node3</title>
<polygon fill="grey" stroke="transparent" points="509,-115 509,-134 659,-134 659,-115 509,-115"/>
<text text-anchor="start" x="534" y="-121.8" font-family="DejaVu Sans" font-weight="bold" font-size="14.00">Badajoz_munic</text>
<g id="a_node4_5"><a xlink:href="http://uned.es/ejs/Badajoz_munic" xlink:title="&lt;TABLE&gt;">
<polygon fill="#eeeeee" stroke="transparent" points="509,-100 509,-115 659,-115 659,-100 509,-100"/>
<text text-anchor="start" x="511" y="-105" font-family="DejaVu Sans" font-size="10.00" fill="#6666ff">http://uned.es/ejs/Badajoz_munic</text>
</a>
</g>
<polygon fill="none" stroke="#666666" points="508,-99 508,-135 660,-135 660,-99 508,-99"/>
</g>
<!-- node2&#45;&gt;node3 -->
<g id="edge2" class="edge">
<title>node2&#45;&gt;node3</title>
<path fill="none" stroke="BLACK" d="M563.13,-189.9C566.65,-177.77 571.13,-162.31 575.04,-148.85"/>
<polygon fill="BLACK" stroke="BLACK" points="578.47,-149.6 577.9,-139.02 571.75,-147.65 578.47,-149.6"/>
<text text-anchor="start" x="572" y="-161.8" font-family="Times,serif" font-size="14.00"> </text>
<text text-anchor="start" x="576" y="-161.8" font-family="Times,serif" font-size="10.00" fill="#336633">ej:tiene_municipio</text>
<text text-anchor="start" x="655" y="-161.8" font-family="Times,serif" font-size="14.00"> </text>
</g>
<!-- node9 -->
<g id="node10" class="node">
<title>node9</title>
<polygon fill="grey" stroke="transparent" points="1102,-115 1102,-134 1226,-134 1226,-115 1102,-115"/>
<text text-anchor="start" x="1133.5" y="-121.8" font-family="DejaVu Sans" font-weight="bold" font-size="14.00">Provincia</text>
<g id="a_node10_6"><a xlink:href="http://uned.es/ejs/Provincia" xlink:title="&lt;TABLE&gt;">
<polygon fill="#eeeeee" stroke="transparent" points="1102,-100 1102,-115 1226,-115 1226,-100 1102,-100"/>
<text text-anchor="start" x="1104" y="-105" font-family="DejaVu Sans" font-size="10.00" fill="#6666ff">http://uned.es/ejs/Provincia</text>
</a>
</g>
<polygon fill="none" stroke="#666666" points="1101,-99 1101,-135 1227,-135 1227,-99 1101,-99"/>
</g>
<!-- node2&#45;&gt;node9 -->
<g id="edge18" class="edge">
<title>node2&#45;&gt;node9</title>
<path fill="none" stroke="BLACK" d="M637.83,-191.44C640.92,-190.91 643.98,-190.43 647,-190 719.93,-179.59 909.09,-198.04 978,-172 988.06,-168.2 987.25,-161.55 997,-157 1030.13,-141.56 1043.54,-147.01 1082.95,-139.05"/>
<polygon fill="BLACK" stroke="BLACK" points="1083.93,-142.42 1092.95,-136.86 1082.43,-135.58 1083.93,-142.42"/>
<text text-anchor="start" x="997" y="-161.8" font-family="Times,serif" font-size="14.00"> </text>
<text text-anchor="start" x="1001" y="-161.8" font-family="Times,serif" font-size="10.00" fill="#336633">rdf:type</text>
<text text-anchor="start" x="1034" y="-161.8" font-family="Times,serif" font-size="14.00"> </text>
</g>
<!-- node13 -->
<g id="node14" class="node">
<title>node13</title>
<polygon fill="grey" stroke="transparent" points="360,-115 360,-134 473,-134 473,-115 360,-115"/>
<text text-anchor="start" x="394" y="-121.8" font-family="DejaVu Sans" font-weight="bold" font-size="14.00">Merida</text>
<g id="a_node14_7"><a xlink:href="http://uned.es/ejs/Merida" xlink:title="&lt;TABLE&gt;">
<polygon fill="#eeeeee" stroke="transparent" points="360,-100 360,-115 473,-115 473,-100 360,-100"/>
<text text-anchor="start" x="362" y="-105" font-family="DejaVu Sans" font-size="10.00" fill="#6666ff">http://uned.es/ejs/Merida</text>
</a>
</g>
<polygon fill="none" stroke="#666666" points="358.5,-99 358.5,-135 473.5,-135 473.5,-99 358.5,-99"/>
</g>
<!-- node2&#45;&gt;node13 -->
<g id="edge12" class="edge">
<title>node2&#45;&gt;node13</title>
<path fill="none" stroke="BLACK" d="M508.45,-189.95C497.78,-184.61 486.76,-178.52 477,-172 465.68,-164.44 454.25,-154.92 444.39,-146"/>
<polygon fill="BLACK" stroke="BLACK" points="446.56,-143.25 436.85,-139.02 441.81,-148.38 446.56,-143.25"/>
<text text-anchor="start" x="477" y="-161.8" font-family="Times,serif" font-size="14.00"> </text>
<text text-anchor="start" x="481" y="-161.8" font-family="Times,serif" font-size="10.00" fill="#336633">ej:tiene_municipio</text>
<text text-anchor="start" x="560" y="-161.8" font-family="Times,serif" font-size="14.00"> </text>
</g>
<!-- node4 -->
<g id="node5" class="node">
<title>node4</title>
<polygon fill="grey" stroke="transparent" points="1069,-305 1069,-324 1254,-324 1254,-305 1069,-305"/>
<text text-anchor="start" x="1084.5" y="-311.8" font-family="DejaVu Sans" font-weight="bold" font-size="14.00">Comunidad_Valenciana</text>
<g id="a_node5_8"><a xlink:href="http://uned.es/ejs/Comunidad_Valenciana" xlink:title="&lt;TABLE&gt;">
<polygon fill="#eeeeee" stroke="transparent" points="1069,-290 1069,-305 1254,-305 1254,-290 1069,-290"/>
<text text-anchor="start" x="1071" y="-295" font-family="DejaVu Sans" font-size="10.00" fill="#6666ff">http://uned.es/ejs/Comunidad_Valenciana</text>
</a>
</g>
<polygon fill="none" stroke="#666666" points="1067.5,-289 1067.5,-325 1254.5,-325 1254.5,-289 1067.5,-289"/>
</g>
<!-- node4&#45;&gt;node1 -->
<g id="edge19" class="edge">
<title>node4&#45;&gt;node1</title>
<path fill="none" stroke="BLACK" d="M1063.7,-284.95C989.28,-268.86 887.67,-246.88 816.39,-231.47"/>
<polygon fill="BLACK" stroke="BLACK" points="817.05,-228.03 806.54,-229.34 815.57,-234.87 817.05,-228.03"/>
<text text-anchor="start" x="971" y="-256.8" font-family="Times,serif" font-size="14.00"> </text>
<text text-anchor="start" x="975" y="-256.8" font-family="Times,serif" font-size="10.00" fill="#336633">rdf:type</text>
<text text-anchor="start" x="1008" y="-256.8" font-family="Times,serif" font-size="14.00"> </text>
</g>
<!-- node5 -->
<g id="node6" class="node">
<title>node5</title>
<polygon fill="grey" stroke="transparent" points="998,-210 998,-229 1141,-229 1141,-210 998,-210"/>
<text text-anchor="start" x="1024.5" y="-216.8" font-family="DejaVu Sans" font-weight="bold" font-size="14.00">Alicante_prov</text>
<g id="a_node6_9"><a xlink:href="http://uned.es/ejs/Alicante_prov" xlink:title="&lt;TABLE&gt;">
<polygon fill="#eeeeee" stroke="transparent" points="998,-195 998,-210 1141,-210 1141,-195 998,-195"/>
<text text-anchor="start" x="1000" y="-200" font-family="DejaVu Sans" font-size="10.00" fill="#6666ff">http://uned.es/ejs/Alicante_prov</text>
</a>
</g>
<polygon fill="none" stroke="#666666" points="996.5,-194 996.5,-230 1141.5,-230 1141.5,-194 996.5,-194"/>
</g>
<!-- node4&#45;&gt;node5 -->
<g id="edge3" class="edge">
<title>node4&#45;&gt;node5</title>
<path fill="none" stroke="BLACK" d="M1140.12,-284.9C1127.42,-272.05 1111.03,-255.49 1097.18,-241.49"/>
<polygon fill="BLACK" stroke="BLACK" points="1099.31,-238.67 1089.79,-234.02 1094.34,-243.59 1099.31,-238.67"/>
<text text-anchor="start" x="1120" y="-256.8" font-family="Times,serif" font-size="14.00"> </text>
<text text-anchor="start" x="1124" y="-256.8" font-family="Times,serif" font-size="10.00" fill="#336633">ej:tiene_provincia</text>
<text text-anchor="start" x="1200" y="-256.8" font-family="Times,serif" font-size="14.00"> </text>
</g>
<!-- node8 -->
<g id="node9" class="node">
<title>node8</title>
<polygon fill="grey" stroke="transparent" points="1224,-210 1224,-229 1368,-229 1368,-210 1224,-210"/>
<text text-anchor="start" x="1250" y="-216.8" font-family="DejaVu Sans" font-weight="bold" font-size="14.00">Valencia_prov</text>
<g id="a_node9_10"><a xlink:href="http://uned.es/ejs/Valencia_prov" xlink:title="&lt;TABLE&gt;">
<polygon fill="#eeeeee" stroke="transparent" points="1224,-195 1224,-210 1368,-210 1368,-195 1224,-195"/>
<text text-anchor="start" x="1226" y="-200" font-family="DejaVu Sans" font-size="10.00" fill="#6666ff">http://uned.es/ejs/Valencia_prov</text>
</a>
</g>
<polygon fill="none" stroke="#666666" points="1223,-194 1223,-230 1369,-230 1369,-194 1223,-194"/>
</g>
<!-- node4&#45;&gt;node8 -->
<g id="edge10" class="edge">
<title>node4&#45;&gt;node8</title>
<path fill="none" stroke="BLACK" d="M1191.63,-284.9C1211.05,-271.52 1236.34,-254.1 1257.16,-239.75"/>
<polygon fill="BLACK" stroke="BLACK" points="1259.24,-242.58 1265.49,-234.02 1255.27,-236.81 1259.24,-242.58"/>
<text text-anchor="start" x="1236" y="-256.8" font-family="Times,serif" font-size="14.00"> </text>
<text text-anchor="start" x="1240" y="-256.8" font-family="Times,serif" font-size="10.00" fill="#336633">ej:tiene_provincia</text>
<text text-anchor="start" x="1316" y="-256.8" font-family="Times,serif" font-size="14.00"> </text>
</g>
<!-- node12 -->
<g id="node13" class="node">
<title>node12</title>
<polygon fill="grey" stroke="transparent" points="1553,-210 1553,-229 1702,-229 1702,-210 1553,-210"/>
<text text-anchor="start" x="1578.5" y="-216.8" font-family="DejaVu Sans" font-weight="bold" font-size="14.00">Castellon_prov</text>
<g id="a_node13_11"><a xlink:href="http://uned.es/ejs/Castellon_prov" xlink:title="&lt;TABLE&gt;">
<polygon fill="#eeeeee" stroke="transparent" points="1553,-195 1553,-210 1702,-210 1702,-195 1553,-195"/>
<text text-anchor="start" x="1555" y="-200" font-family="DejaVu Sans" font-size="10.00" fill="#6666ff">http://uned.es/ejs/Castellon_prov</text>
</a>
</g>
<polygon fill="none" stroke="#666666" points="1551.5,-194 1551.5,-230 1702.5,-230 1702.5,-194 1551.5,-194"/>
</g>
<!-- node4&#45;&gt;node12 -->
<g id="edge11" class="edge">
<title>node4&#45;&gt;node12</title>
<path fill="none" stroke="BLACK" d="M1262.69,-285.71C1343.33,-269.61 1455.13,-247.3 1533.54,-231.65"/>
<polygon fill="BLACK" stroke="BLACK" points="1534.3,-235.07 1543.42,-229.68 1532.93,-228.21 1534.3,-235.07"/>
<text text-anchor="start" x="1421" y="-256.8" font-family="Times,serif" font-size="14.00"> </text>
<text text-anchor="start" x="1425" y="-256.8" font-family="Times,serif" font-size="10.00" fill="#336633">ej:tiene_provincia</text>
<text text-anchor="start" x="1501" y="-256.8" font-family="Times,serif" font-size="14.00"> </text>
</g>
<!-- node5&#45;&gt;node9 -->
<g id="edge22" class="edge">
<title>node5&#45;&gt;node9</title>
<path fill="none" stroke="BLACK" d="M1118.67,-189.91C1126.84,-184.89 1134.68,-178.94 1141,-172 1147.06,-165.34 1151.68,-156.84 1155.13,-148.56"/>
<polygon fill="BLACK" stroke="BLACK" points="1158.45,-149.67 1158.66,-139.08 1151.89,-147.23 1158.45,-149.67"/>
<text text-anchor="start" x="1150" y="-161.8" font-family="Times,serif" font-size="14.00"> </text>
<text text-anchor="start" x="1154" y="-161.8" font-family="Times,serif" font-size="10.00" fill="#336633">rdf:type</text>
<text text-anchor="start" x="1187" y="-161.8" font-family="Times,serif" font-size="14.00"> </text>
</g>
<!-- node10 -->
<g id="node11" class="node">
<title>node10</title>
<polygon fill="grey" stroke="transparent" points="772,-115 772,-134 922,-134 922,-115 772,-115"/>
<text text-anchor="start" x="796.5" y="-121.8" font-family="DejaVu Sans" font-weight="bold" font-size="14.00">Alicante_munic</text>
<g id="a_node11_12"><a xlink:href="http://uned.es/ejs/Alicante_munic" xlink:title="&lt;TABLE&gt;">
<polygon fill="#eeeeee" stroke="transparent" points="772,-100 772,-115 922,-115 922,-100 772,-100"/>
<text text-anchor="start" x="774" y="-105" font-family="DejaVu Sans" font-size="10.00" fill="#6666ff">http://uned.es/ejs/Alicante_munic</text>
</a>
</g>
<polygon fill="none" stroke="#666666" points="771,-99 771,-135 923,-135 923,-99 771,-99"/>
</g>
<!-- node5&#45;&gt;node10 -->
<g id="edge7" class="edge">
<title>node5&#45;&gt;node10</title>
<path fill="none" stroke="BLACK" d="M988.28,-208.91C926.16,-205.39 847.56,-196.14 827,-172 821.14,-165.13 821.91,-156.38 825.36,-147.94"/>
<polygon fill="BLACK" stroke="BLACK" points="828.49,-149.49 829.96,-139 822.27,-146.29 828.49,-149.49"/>
<text text-anchor="start" x="827" y="-161.8" font-family="Times,serif" font-size="14.00"> </text>
<text text-anchor="start" x="831" y="-161.8" font-family="Times,serif" font-size="10.00" fill="#336633">ej:tiene_municipio</text>
<text text-anchor="start" x="910" y="-161.8" font-family="Times,serif" font-size="14.00"> </text>
</g>
<!-- node17 -->
<g id="node18" class="node">
<title>node17</title>
<polygon fill="grey" stroke="transparent" points="958,-115 958,-134 1066,-134 1066,-115 958,-115"/>
<text text-anchor="start" x="993.5" y="-121.8" font-family="DejaVu Sans" font-weight="bold" font-size="14.00">Elche</text>
<g id="a_node18_13"><a xlink:href="http://uned.es/ejs/Elche" xlink:title="&lt;TABLE&gt;">
<polygon fill="#eeeeee" stroke="transparent" points="958,-100 958,-115 1066,-115 1066,-100 958,-100"/>
<text text-anchor="start" x="960" y="-105" font-family="DejaVu Sans" font-size="10.00" fill="#6666ff">http://uned.es/ejs/Elche</text>
</a>
</g>
<polygon fill="none" stroke="#666666" points="957,-99 957,-135 1067,-135 1067,-99 957,-99"/>
</g>
<!-- node5&#45;&gt;node17 -->
<g id="edge21" class="edge">
<title>node5&#45;&gt;node17</title>
<path fill="none" stroke="BLACK" d="M1059.65,-189.98C1054.82,-179.77 1048.57,-167.48 1042,-157 1040.02,-153.85 1037.85,-150.64 1035.61,-147.48"/>
<polygon fill="BLACK" stroke="BLACK" points="1038.34,-145.29 1029.58,-139.33 1032.71,-149.45 1038.34,-145.29"/>
<text text-anchor="start" x="1050" y="-161.8" font-family="Times,serif" font-size="14.00"> </text>
<text text-anchor="start" x="1054" y="-161.8" font-family="Times,serif" font-size="10.00" fill="#336633">ej:tiene_municipio</text>
<text text-anchor="start" x="1133" y="-161.8" font-family="Times,serif" font-size="14.00"> </text>
</g>
<!-- node6&#45;&gt;node9 -->
<g id="edge15" class="edge">
<title>node6&#45;&gt;node9</title>
<path fill="none" stroke="BLACK" d="M380.09,-199.53C407.91,-195.97 439.27,-192.36 468,-190 517.43,-185.94 867.48,-189.21 914,-172 924.09,-168.27 923.06,-161.12 933,-157 992.5,-132.3 1015.43,-149.79 1082.38,-139.06"/>
<polygon fill="BLACK" stroke="BLACK" points="1083.34,-142.45 1092.58,-137.27 1082.13,-135.55 1083.34,-142.45"/>
<text text-anchor="start" x="933" y="-161.8" font-family="Times,serif" font-size="14.00"> </text>
<text text-anchor="start" x="937" y="-161.8" font-family="Times,serif" font-size="10.00" fill="#336633">rdf:type</text>
<text text-anchor="start" x="970" y="-161.8" font-family="Times,serif" font-size="14.00"> </text>
</g>
<!-- node11 -->
<g id="node12" class="node">
<title>node11</title>
<polygon fill="grey" stroke="transparent" points="171,-115 171,-134 323,-134 323,-115 171,-115"/>
<text text-anchor="start" x="196.5" y="-121.8" font-family="DejaVu Sans" font-weight="bold" font-size="14.00">Caceres_munic</text>
<g id="a_node12_14"><a xlink:href="http://uned.es/ejs/Caceres_munic" xlink:title="&lt;TABLE&gt;">
<polygon fill="#eeeeee" stroke="transparent" points="171,-100 171,-115 323,-115 323,-100 171,-100"/>
<text text-anchor="start" x="173" y="-105" font-family="DejaVu Sans" font-size="10.00" fill="#6666ff">http://uned.es/ejs/Caceres_munic</text>
</a>
</g>
<polygon fill="none" stroke="#666666" points="170,-99 170,-135 324,-135 324,-99 170,-99"/>
</g>
<!-- node6&#45;&gt;node11 -->
<g id="edge8" class="edge">
<title>node6&#45;&gt;node11</title>
<path fill="none" stroke="BLACK" d="M287.2,-189.9C280.29,-177.53 271.44,-161.71 263.81,-148.06"/>
<polygon fill="BLACK" stroke="BLACK" points="266.69,-146.04 258.75,-139.02 260.58,-149.46 266.69,-146.04"/>
<text text-anchor="start" x="277" y="-161.8" font-family="Times,serif" font-size="14.00"> </text>
<text text-anchor="start" x="281" y="-161.8" font-family="Times,serif" font-size="10.00" fill="#336633">ej:tiene_municipio</text>
<text text-anchor="start" x="360" y="-161.8" font-family="Times,serif" font-size="14.00"> </text>
</g>
<!-- node15 -->
<g id="node16" class="node">
<title>node15</title>
<polygon fill="grey" stroke="transparent" points="9,-115 9,-134 135,-134 135,-115 9,-115"/>
<text text-anchor="start" x="40.5" y="-121.8" font-family="DejaVu Sans" font-weight="bold" font-size="14.00">Plasencia</text>
<g id="a_node16_15"><a xlink:href="http://uned.es/ejs/Plasencia" xlink:title="&lt;TABLE&gt;">
<polygon fill="#eeeeee" stroke="transparent" points="9,-100 9,-115 135,-115 135,-100 9,-100"/>
<text text-anchor="start" x="11" y="-105" font-family="DejaVu Sans" font-size="10.00" fill="#6666ff">http://uned.es/ejs/Plasencia</text>
</a>
</g>
<polygon fill="none" stroke="#666666" points="8,-99 8,-135 136,-135 136,-99 8,-99"/>
</g>
<!-- node6&#45;&gt;node15 -->
<g id="edge14" class="edge">
<title>node6&#45;&gt;node15</title>
<path fill="none" stroke="BLACK" d="M228.23,-189.99C211.89,-184.59 194.7,-178.47 179,-172 159.09,-163.8 137.78,-153.4 119.47,-143.92"/>
<polygon fill="BLACK" stroke="BLACK" points="120.95,-140.74 110.46,-139.21 117.7,-146.95 120.95,-140.74"/>
<text text-anchor="start" x="179" y="-161.8" font-family="Times,serif" font-size="14.00"> </text>
<text text-anchor="start" x="183" y="-161.8" font-family="Times,serif" font-size="10.00" fill="#336633">ej:tiene_municipio</text>
<text text-anchor="start" x="262" y="-161.8" font-family="Times,serif" font-size="14.00"> </text>
</g>
<!-- node8&#45;&gt;node9 -->
<g id="edge6" class="edge">
<title>node8&#45;&gt;node9</title>
<path fill="none" stroke="BLACK" d="M1266.05,-189.9C1247.14,-176.58 1222.55,-159.25 1202.25,-144.95"/>
<polygon fill="BLACK" stroke="BLACK" points="1204.03,-141.92 1193.83,-139.02 1199.99,-147.64 1204.03,-141.92"/>
<text text-anchor="start" x="1237" y="-161.8" font-family="Times,serif" font-size="14.00"> </text>
<text text-anchor="start" x="1241" y="-161.8" font-family="Times,serif" font-size="10.00" fill="#336633">rdf:type</text>
<text text-anchor="start" x="1274" y="-161.8" font-family="Times,serif" font-size="14.00"> </text>
</g>
<!-- node14 -->
<g id="node15" class="node">
<title>node14</title>
<polygon fill="grey" stroke="transparent" points="1450,-115 1450,-134 1564,-134 1564,-115 1450,-115"/>
<text text-anchor="start" x="1483.5" y="-121.8" font-family="DejaVu Sans" font-weight="bold" font-size="14.00">Gandia</text>
<g id="a_node15_16"><a xlink:href="http://uned.es/ejs/Gandia" xlink:title="&lt;TABLE&gt;">
<polygon fill="#eeeeee" stroke="transparent" points="1450,-100 1450,-115 1564,-115 1564,-100 1450,-100"/>
<text text-anchor="start" x="1452" y="-105" font-family="DejaVu Sans" font-size="10.00" fill="#6666ff">http://uned.es/ejs/Gandia</text>
</a>
</g>
<polygon fill="none" stroke="#666666" points="1449,-99 1449,-135 1565,-135 1565,-99 1449,-99"/>
</g>
<!-- node8&#45;&gt;node14 -->
<g id="edge13" class="edge">
<title>node8&#45;&gt;node14</title>
<path fill="none" stroke="BLACK" d="M1363.98,-189.96C1379.32,-184.61 1395.38,-178.51 1410,-172 1428.13,-163.93 1447.36,-153.62 1463.88,-144.18"/>
<polygon fill="BLACK" stroke="BLACK" points="1465.85,-147.08 1472.75,-139.04 1462.34,-141.02 1465.85,-147.08"/>
<text text-anchor="start" x="1440" y="-161.8" font-family="Times,serif" font-size="14.00"> </text>
<text text-anchor="start" x="1444" y="-161.8" font-family="Times,serif" font-size="10.00" fill="#336633">ej:tiene_municipio</text>
<text text-anchor="start" x="1523" y="-161.8" font-family="Times,serif" font-size="14.00"> </text>
</g>
<!-- node19 -->
<g id="node20" class="node">
<title>node19</title>
<polygon fill="grey" stroke="transparent" points="1262,-115 1262,-134 1414,-134 1414,-115 1262,-115"/>
<text text-anchor="start" x="1286.5" y="-121.8" font-family="DejaVu Sans" font-weight="bold" font-size="14.00">Valencia_munic</text>
<g id="a_node20_17"><a xlink:href="http://uned.es/ejs/Valencia_munic" xlink:title="&lt;TABLE&gt;">
<polygon fill="#eeeeee" stroke="transparent" points="1262,-100 1262,-115 1414,-115 1414,-100 1262,-100"/>
<text text-anchor="start" x="1264" y="-105" font-family="DejaVu Sans" font-size="10.00" fill="#6666ff">http://uned.es/ejs/Valencia_munic</text>
</a>
</g>
<polygon fill="none" stroke="#666666" points="1261,-99 1261,-135 1415,-135 1415,-99 1261,-99"/>
</g>
<!-- node8&#45;&gt;node19 -->
<g id="edge24" class="edge">
<title>node8&#45;&gt;node19</title>
<path fill="none" stroke="BLACK" d="M1305.53,-189.9C1311.06,-177.65 1318.12,-162.01 1324.25,-148.45"/>
<polygon fill="BLACK" stroke="BLACK" points="1327.58,-149.57 1328.51,-139.02 1321.2,-146.69 1327.58,-149.57"/>
<text text-anchor="start" x="1319" y="-161.8" font-family="Times,serif" font-size="14.00"> </text>
<text text-anchor="start" x="1323" y="-161.8" font-family="Times,serif" font-size="10.00" fill="#336633">ej:tiene_municipio</text>
<text text-anchor="start" x="1402" y="-161.8" font-family="Times,serif" font-size="14.00"> </text>
</g>
<!-- node9&#45;&gt;node7 -->
<g id="edge17" class="edge">
<title>node9&#45;&gt;node7</title>
<path fill="none" stroke="BLACK" d="M1092.96,-97.11C1089.93,-96.38 1086.94,-95.68 1084,-95 1003.2,-76.42 911.65,-58.33 840.57,-44.92"/>
<polygon fill="BLACK" stroke="BLACK" points="841.16,-41.47 830.68,-43.06 839.87,-48.35 841.16,-41.47"/>
<text text-anchor="start" x="994" y="-66.8" font-family="Times,serif" font-size="14.00"> </text>
<text text-anchor="start" x="998" y="-66.8" font-family="Times,serif" font-size="10.00" fill="#336633">rdf:type</text>
<text text-anchor="start" x="1031" y="-66.8" font-family="Times,serif" font-size="14.00"> </text>
</g>
<!-- node12&#45;&gt;node9 -->
<g id="edge20" class="edge">
<title>node12&#45;&gt;node9</title>
<path fill="none" stroke="BLACK" d="M1597.45,-189.76C1579.22,-177.86 1554.84,-164.05 1531,-157 1411.55,-121.68 1372.18,-157.41 1245.47,-139.02"/>
<polygon fill="BLACK" stroke="BLACK" points="1245.8,-135.53 1235.38,-137.47 1244.73,-142.45 1245.8,-135.53"/>
<text text-anchor="start" x="1567" y="-161.8" font-family="Times,serif" font-size="14.00"> </text>
<text text-anchor="start" x="1571" y="-161.8" font-family="Times,serif" font-size="10.00" fill="#336633">rdf:type</text>
<text text-anchor="start" x="1604" y="-161.8" font-family="Times,serif" font-size="14.00"> </text>
</g>
<!-- node16 -->
<g id="node17" class="node">
<title>node16</title>
<polygon fill="grey" stroke="transparent" points="1755,-115 1755,-134 1938,-134 1938,-115 1755,-115"/>
<text text-anchor="start" x="1773" y="-121.8" font-family="DejaVu Sans" font-weight="bold" font-size="14.00">Castellon_de_la_Plana</text>
<g id="a_node17_18"><a xlink:href="http://uned.es/ejs/Castellon_de_la_Plana" xlink:title="&lt;TABLE&gt;">
<polygon fill="#eeeeee" stroke="transparent" points="1755,-100 1755,-115 1938,-115 1938,-100 1755,-100"/>
<text text-anchor="start" x="1757" y="-105" font-family="DejaVu Sans" font-size="10.00" fill="#6666ff">http://uned.es/ejs/Castellon_de_la_Plana</text>
</a>
</g>
<polygon fill="none" stroke="#666666" points="1753.5,-99 1753.5,-135 1938.5,-135 1938.5,-99 1753.5,-99"/>
</g>
<!-- node12&#45;&gt;node16 -->
<g id="edge16" class="edge">
<title>node12&#45;&gt;node16</title>
<path fill="none" stroke="BLACK" d="M1688.84,-189.95C1704.05,-184.42 1720.22,-178.24 1735,-172 1755.36,-163.4 1777.33,-152.97 1796.31,-143.57"/>
<polygon fill="BLACK" stroke="BLACK" points="1797.97,-146.65 1805.36,-139.06 1794.85,-140.39 1797.97,-146.65"/>
<text text-anchor="start" x="1765" y="-161.8" font-family="Times,serif" font-size="14.00"> </text>
<text text-anchor="start" x="1769" y="-161.8" font-family="Times,serif" font-size="10.00" fill="#336633">ej:tiene_municipio</text>
<text text-anchor="start" x="1848" y="-161.8" font-family="Times,serif" font-size="14.00"> </text>
</g>
<!-- node18 -->
<g id="node19" class="node">
<title>node18</title>
<polygon fill="grey" stroke="transparent" points="1600,-115 1600,-134 1718,-134 1718,-115 1600,-115"/>
<text text-anchor="start" x="1633" y="-121.8" font-family="DejaVu Sans" font-weight="bold" font-size="14.00">Villareal</text>
<g id="a_node19_19"><a xlink:href="http://uned.es/ejs/Villareal" xlink:title="&lt;TABLE&gt;">
<polygon fill="#eeeeee" stroke="transparent" points="1600,-100 1600,-115 1718,-115 1718,-100 1600,-100"/>
<text text-anchor="start" x="1602" y="-105" font-family="DejaVu Sans" font-size="10.00" fill="#6666ff">http://uned.es/ejs/Villareal</text>
</a>
</g>
<polygon fill="none" stroke="#666666" points="1599,-99 1599,-135 1719,-135 1719,-99 1599,-99"/>
</g>
<!-- node12&#45;&gt;node18 -->
<g id="edge23" class="edge">
<title>node12&#45;&gt;node18</title>
<path fill="none" stroke="BLACK" d="M1634.26,-189.9C1638.43,-177.77 1643.75,-162.31 1648.39,-148.85"/>
<polygon fill="BLACK" stroke="BLACK" points="1651.82,-149.61 1651.77,-139.02 1645.2,-147.34 1651.82,-149.61"/>
<text text-anchor="start" x="1644" y="-161.8" font-family="Times,serif" font-size="14.00"> </text>
<text text-anchor="start" x="1648" y="-161.8" font-family="Times,serif" font-size="10.00" fill="#336633">ej:tiene_municipio</text>
<text text-anchor="start" x="1727" y="-161.8" font-family="Times,serif" font-size="14.00"> </text>
</g>
</g>
</svg>
